<?xml version="1.0" encoding="utf-8"?>
<!-- Generator: Adobe Illustrator 16.0.0, SVG Export Plug-In . SVG Version: 6.00 Build 0)  -->
<!DOCTYPE svg PUBLIC "-//W3C//DTD SVG 1.1//EN" "http://www.w3.org/Graphics/SVG/1.1/DTD/svg11.dtd">
<svg version="1.1" id="Capa_1" xmlns="http://www.w3.org/2000/svg" xmlns:xlink="http://www.w3.org/1999/xlink" x="0px" y="0px"
	 width="35px" height="35px" viewBox="0 0 35 35" enable-background="new 0 0 35 35" xml:space="preserve">
<g>
	<g>
		<path fill="#FFFFFF" d="M15.88,32.381c0.436,0.436,1.021,0.678,1.634,0.678c0.607,0,1.207-0.25,1.634-0.678l12.826-12.825
			c1.947-1.949,3.018-4.54,3.025-7.287c0-2.755-1.07-5.346-3.02-7.294c-1.947-1.949-4.531-3.019-7.286-3.019
			c-2.705,0-5.253,1.035-7.187,2.919c-1.941-1.891-4.497-2.933-7.208-2.933c-2.748,0-5.332,1.07-7.28,3.012
			C1.07,6.901,0,9.492,0,12.247c0,2.748,1.078,5.338,3.026,7.287L15.88,32.381z M4.261,6.195C5.874,4.582,8.022,3.69,10.306,3.69
			c2.284,0,4.439,0.892,6.06,2.512l0.528,0.528c0.164,0.164,0.385,0.257,0.621,0.257l0,0c0.229,0,0.457-0.093,0.621-0.257
			l0.514-0.514c1.621-1.62,3.77-2.512,6.061-2.512c2.283,0,4.432,0.892,6.045,2.505c1.619,1.62,2.505,3.769,2.505,6.052
			c0,2.284-0.893,4.432-2.513,6.052L17.914,31.146c-0.207,0.207-0.585,0.207-0.799,0L4.268,18.299
			c-1.62-1.62-2.512-3.768-2.512-6.052C1.756,9.963,2.648,7.815,4.261,6.195z"/>
	</g>
</g>
</svg>
