<?xml version="1.0" encoding="utf-8"?>
<!-- Generator: Adobe Illustrator 16.0.0, SVG Export Plug-In . SVG Version: 6.00 Build 0)  -->
<!DOCTYPE svg PUBLIC "-//W3C//DTD SVG 1.1//EN" "http://www.w3.org/Graphics/SVG/1.1/DTD/svg11.dtd">
<svg version="1.1" id="Capa_1" xmlns="http://www.w3.org/2000/svg" xmlns:xlink="http://www.w3.org/1999/xlink" x="0px" y="0px"
	 width="35px" height="35px" viewBox="0 0 35 35" enable-background="new 0 0 35 35" xml:space="preserve">
<g>
	<g>
		<path fill="#FFFFFF" d="M15.88,32.381c0.436,0.436,1.021,0.678,1.634,0.678c0.607,0,1.207-0.25,1.634-0.678l12.826-12.825
			c1.947-1.949,3.018-4.54,3.025-7.287c0-2.755-1.07-5.346-3.02-7.294c-1.947-1.949-4.531-3.019-7.286-3.019
			c-2.705,0-5.253,1.035-7.187,2.919c-1.941-1.891-4.497-2.933-7.208-2.933c-2.748,0-5.332,1.07-7.28,3.012
			C1.07,6.901,0,9.492,0,12.247c0,2.748,1.078,5.338,3.026,7.287L15.88,32.381z M17.514,6.987"/>
	</g>
</g>
</svg>
